<svg xmlns="http://www.w3.org/2000/svg" width="160" height="115" viewBox="0 0 160 115" fill="none">
  <g clip-path="url(#clip0_431_2411)">
    <path d="M98.4677 78.3602C97.744 78.647 97.0872 79.0802 96.5384 79.6325C95.9731 80.2074 95.5255 80.8872 95.2207 81.6337C94.8829 82.4627 94.7161 83.3514 94.7302 84.2465C94.7313 84.9934 94.8279 85.7371 95.0177 86.4595C95.2003 87.1948 95.4485 87.9122 95.7592 88.6032H102.272C102.279 89.2917 102.18 89.9772 101.98 90.6359C101.843 91.0844 101.588 91.488 101.242 91.8048C100.91 92.08 100.514 92.2673 100.091 92.3495C99.5845 92.4388 99.0712 92.481 98.5573 92.4756C98.319 92.4756 98.0441 92.4618 97.7339 92.4403C97.4452 92.4205 97.1598 92.3685 96.8827 92.2852C96.8395 92.4989 96.7822 92.7096 96.7112 92.9157C97.2151 93.2131 97.7609 93.4329 98.3303 93.5677C98.9355 93.7257 99.5584 93.8057 100.184 93.806C100.699 93.8019 101.211 93.7247 101.705 93.5765C102.249 93.4172 102.755 93.1453 103.188 92.7783C103.678 92.3542 104.07 91.8295 104.339 91.2399C104.677 90.4526 104.851 89.6049 104.852 88.7482C104.87 88.4556 104.879 88.1593 104.889 87.8579C104.899 87.5565 104.903 87.2375 104.903 86.9185V77.9151H100.761C99.9737 77.9135 99.193 78.0646 98.4627 78.3602M102.223 86.7255H98.0088C97.7886 86.2539 97.6268 85.7572 97.5271 85.2464C97.4322 84.7586 97.3841 84.2629 97.3833 83.766C97.3636 83.1227 97.4783 82.4824 97.72 81.8859C97.911 81.4351 98.1876 81.0257 98.5346 80.6804C98.8311 80.3931 99.1852 80.1722 99.5736 80.0322C99.8989 79.9104 100.243 79.8451 100.59 79.8393H102.223V86.7255Z" fill="#405378"/>
    <path d="M80.9225 73.6919L78.799 76.2555H83.0535L80.9225 73.6919Z" fill="#405378"/>
    <path d="M88.1453 76.2555L86.0181 73.6919L83.8857 76.2555H88.1453Z" fill="#405378"/>
    <path d="M25.6548 73.6919L23.5225 76.2555H27.7821L25.6548 73.6919Z" fill="#405378"/>
    <path d="M83.4671 70.7012L81.3448 73.2648H85.5994L83.4671 70.7012Z" fill="#405378"/>
    <path d="M89.3193 77.91V86.7256L87.2349 86.6991C86.8527 86.7039 86.4749 86.6174 86.1328 86.4469C85.8382 86.3024 85.5904 86.0778 85.4178 85.7987C85.2343 85.4937 85.1063 85.1586 85.0395 84.8089C84.9526 84.4007 84.9103 83.9842 84.9134 83.5668V79.4484H82.2313V85.0573C82.2698 85.4916 82.1873 85.928 81.993 86.3183C81.8848 86.452 81.7451 86.5566 81.5863 86.6226C81.4276 86.6887 81.2549 86.7141 81.0838 86.6966H79.8871C79.5049 86.7014 79.1271 86.6149 78.785 86.4444C78.489 86.3001 78.2395 86.0755 78.065 85.7962C77.8815 85.4912 77.7535 85.156 77.6867 84.8064C77.602 84.3978 77.5597 83.9816 77.5606 83.5643V80.9919H74.9037V85.0573C74.9427 85.4916 74.8602 85.9282 74.6654 86.3183C74.5529 86.4525 74.4093 86.5571 74.2471 86.623C74.0849 86.689 73.909 86.7142 73.7348 86.6966H52.496C52.1135 86.7158 51.7317 86.6467 51.3801 86.4948C51.0909 86.3505 50.8445 86.1331 50.6651 85.8643C50.4719 85.5724 50.3374 85.2456 50.2691 84.9022C50.1845 84.5047 50.1422 84.0993 50.143 83.6929V77.9062H47.4685V85.0939C47.4783 85.41 47.4452 85.726 47.3701 86.0333C47.3249 86.2246 47.2154 86.3947 47.0599 86.515C46.8962 86.6218 46.7067 86.6823 46.5114 86.6903C46.2869 86.7041 0 86.713 0 86.713V88.5918H46.6564C47.1705 88.6051 47.6836 88.5383 48.1772 88.3939C48.5521 88.2807 48.8986 88.089 49.1935 87.8315C49.4667 87.5919 49.6768 87.2887 49.8051 86.9488C49.9467 86.5844 50.0391 86.2027 50.08 85.8139C50.2154 86.5605 50.566 87.2512 51.0888 87.8012C51.5046 88.2254 52.0544 88.4927 52.6448 88.5578C52.7391 88.5796 52.8356 88.5902 52.9323 88.5893H74.0904C74.6025 88.5997 75.1131 88.53 75.6036 88.3825C75.9813 88.2691 76.3287 88.0722 76.6199 87.8062C76.8842 87.5559 77.0926 87.2525 77.2315 86.916C77.3804 86.5426 77.4771 86.1506 77.519 85.7508C77.6501 86.5091 77.9948 87.2143 78.5127 87.7835C78.7729 88.0545 79.0883 88.2664 79.4374 88.4052C79.7865 88.544 80.1613 88.6063 80.5365 88.5881H81.4457C81.896 88.6341 82.3509 88.5885 82.7831 88.4539C83.2152 88.3193 83.6156 88.0986 83.9601 87.805C84.4763 87.2354 84.7951 86.5146 84.8693 85.7496C84.9985 86.5085 85.3435 87.2141 85.8629 87.7823C86.1224 88.0525 86.4367 88.2641 86.7847 88.4028C87.1327 88.5416 87.5063 88.6043 87.8805 88.5868H92.0266V77.9062H89.3143L89.3193 77.91Z" fill="#405378"/>
    <path d="M115.105 86.7257C114.758 86.7502 114.41 86.6843 114.095 86.5345C113.781 86.3847 113.511 86.156 113.311 85.8707C112.921 85.1864 112.738 84.4036 112.785 83.6174V77.9102H110.076V88.0485C110.09 88.807 110.027 89.5649 109.887 90.3107C109.797 90.7958 109.604 91.2559 109.321 91.6599C109.094 91.9661 108.776 92.1929 108.413 92.3081C108.004 92.4283 107.579 92.4861 107.152 92.4796C106.959 92.4796 106.73 92.4657 106.469 92.4443C106.219 92.4212 105.973 92.3683 105.736 92.2866C105.699 92.5012 105.643 92.7122 105.57 92.9171C106.004 93.2 106.477 93.4195 106.973 93.5691C107.472 93.7269 107.992 93.8073 108.515 93.8074C109.111 93.8132 109.7 93.6838 110.238 93.4291C110.782 93.1658 111.247 92.7639 111.587 92.2639C112.003 91.6491 112.302 90.9631 112.47 90.2401C112.694 89.2777 112.798 88.2912 112.78 87.3032V85.7648C112.896 86.526 113.239 87.2345 113.765 87.7975C114.16 88.2113 114.683 88.4804 115.249 88.5617C115.423 88.584 115.599 88.5975 115.775 88.602H160V86.7257H115.109H115.105Z" fill="#405378"/>
    <path d="M71.0905 17.8849L72.6516 16.3149L74.2164 17.8849L72.6516 19.4598L71.0905 17.8849Z" fill="#B167A1"/>
    <path d="M56.6484 17.8849L58.2133 16.3149L59.7769 17.8849L58.2133 19.4598L56.6484 17.8849Z" fill="#B167A1"/>
    <path d="M56.6484 2.67352L58.2133 1.10107L59.7769 2.67352L58.2133 4.25354L56.6484 2.67352Z" fill="#B167A1"/>
    <path d="M56.6484 32.4981L58.2133 30.9219L59.7769 32.4981L58.2133 34.0743L56.6484 32.4981Z" fill="#B167A1"/>
    <path d="M71.1346 46.9492L72.6957 45.3755L74.2568 46.9492L72.692 48.5191L71.1346 46.9492Z" fill="#B167A1"/>
    <path d="M56.6536 46.9492L58.2147 45.3755L59.777 46.9492L58.2134 48.5179L56.6536 46.9492Z" fill="#B167A1"/>
    <path d="M135.146 9.67295C135.021 9.62561 134.889 9.59838 134.755 9.59225C134.512 9.59125 134.274 9.66244 134.071 9.79678C133.869 9.93113 133.711 10.1226 133.617 10.3469C133.523 10.5713 133.498 10.8184 133.545 11.057C133.592 11.2955 133.708 11.5148 133.88 11.6871C134.051 11.8594 134.27 11.9769 134.509 12.0247C134.747 12.0725 134.994 12.0484 135.219 11.9556C135.444 11.8628 135.636 11.7054 135.771 11.5033C135.906 11.3012 135.978 11.0636 135.978 10.8204C135.974 10.682 135.946 10.5453 135.898 10.4157L142.793 3.48026C142.847 3.5107 142.904 3.53481 142.964 3.55214C143.188 3.59545 143.419 3.57131 143.629 3.48278L150.487 10.3778C150.432 10.5186 150.403 10.6681 150.401 10.8192C150.403 11.06 150.476 11.295 150.611 11.4943C150.746 11.6937 150.937 11.8486 151.161 11.9395C151.384 12.0304 151.628 12.0533 151.864 12.0051C152.1 11.957 152.317 11.84 152.487 11.669C152.656 11.498 152.771 11.2806 152.817 11.0442C152.864 10.8079 152.839 10.5631 152.746 10.3408C152.653 10.1186 152.497 9.92873 152.296 9.79528C152.096 9.66183 151.86 9.59075 151.619 9.59099C151.498 9.59665 151.379 9.62089 151.265 9.66287L144.361 2.72745C144.382 2.68966 144.399 2.65047 144.414 2.61018C144.481 2.29247 144.419 1.9612 144.242 1.68925C144.154 1.55459 144.04 1.43855 143.908 1.34775C143.775 1.25695 143.626 1.19317 143.468 1.16005C143.311 1.12693 143.149 1.12512 142.991 1.15472C142.833 1.18433 142.682 1.24477 142.548 1.33259C142.276 1.50995 142.085 1.78807 142.018 2.10579C141.983 2.31055 142 2.52085 142.068 2.71736L135.146 9.67295Z" fill="#CF3D28"/>
    <path d="M149.293 3.58156C149.447 3.58095 149.599 3.55054 149.742 3.49203L156.597 10.3821C156.542 10.5211 156.513 10.6689 156.511 10.8184C156.513 11.0591 156.586 11.294 156.721 11.4934C156.856 11.6927 157.047 11.8477 157.27 11.9386C157.493 12.0295 157.738 12.0524 157.973 12.0044C158.209 11.9563 158.426 11.8395 158.596 11.6686C158.765 11.4978 158.88 11.2805 158.927 11.0442C158.973 10.8079 158.948 10.5632 158.856 10.3409C158.763 10.1186 158.607 9.92866 158.407 9.79506C158.206 9.66146 157.971 9.59016 157.73 9.59015C157.609 9.59799 157.489 9.62217 157.375 9.66203L150.439 2.69509C150.477 2.5831 150.5 2.46642 150.506 2.34832C150.505 2.10712 150.432 1.87177 150.297 1.67198C150.161 1.4722 149.97 1.31693 149.747 1.22577C149.523 1.13462 149.278 1.11167 149.042 1.15983C148.805 1.20798 148.589 1.32508 148.419 1.49634C148.249 1.66759 148.134 1.88533 148.087 2.12207C148.041 2.35881 148.066 2.60392 148.159 2.82648C148.252 3.04904 148.409 3.23905 148.61 3.37254C148.811 3.50603 149.047 3.57701 149.288 3.57652L149.293 3.58156Z" fill="#CF3D28"/>
    <path d="M141.641 14.8745L143.208 13.3008L144.767 14.8745L143.208 16.4444L141.641 14.8745Z" fill="#CF3D28"/>
    <path d="M8.58992 39.4828C8.68718 39.4692 8.77871 39.4286 8.85422 39.3658C8.92973 39.303 8.98624 39.2204 9.01739 39.1272C9.42666 38.2152 9.90953 37.338 10.4612 36.5044C11.4521 36.6388 12.4175 36.9193 13.3262 37.3366C13.4144 37.38 13.5129 37.3979 13.6107 37.3883C13.7085 37.3787 13.8016 37.342 13.8797 37.2824C13.9386 37.2032 13.9748 37.1095 13.9844 37.0113C13.9939 36.9131 13.9765 36.8141 13.934 36.7251C13.5809 35.7896 13.3051 34.8268 13.1093 33.8462C13.9023 33.2366 14.7816 32.7483 15.7183 32.3974C15.7748 32.3866 15.8287 32.3648 15.8768 32.3332C15.9249 32.3015 15.9663 32.2607 15.9985 32.213C16.0308 32.1653 16.0532 32.1116 16.0646 32.0552C16.0761 31.9988 16.0762 31.9406 16.065 31.8841C16.0493 31.798 16.0077 31.7186 15.9457 31.6567C15.8838 31.5947 15.8044 31.5531 15.7183 31.5374C14.8108 31.1248 13.9383 30.6395 13.1093 30.086C13.2398 29.0905 13.5186 28.1201 13.9365 27.2072C13.979 27.1181 13.9965 27.0192 13.9869 26.9209C13.9773 26.8227 13.9412 26.729 13.8823 26.6498C13.7915 26.5809 13.681 26.5429 13.567 26.5414C13.4848 26.5433 13.4037 26.5617 13.3287 26.5956C12.3982 26.9512 11.44 27.2295 10.4637 27.4278C9.85613 26.6288 9.37119 25.7435 9.02496 24.8012C9.0068 24.7006 8.95385 24.6095 8.87537 24.5439C8.79689 24.4783 8.69787 24.4424 8.59559 24.4424C8.49332 24.4424 8.39429 24.4783 8.31582 24.5439C8.23734 24.6095 8.18439 24.7006 8.16623 24.8012C7.81882 25.7437 7.33261 26.629 6.72366 27.4278C5.73268 27.2941 4.76713 27.0136 3.85871 26.5956C3.78356 26.5621 3.7026 26.5437 3.62038 26.5414C3.5054 26.5437 3.39396 26.5816 3.30135 26.6498C3.23906 26.7275 3.20115 26.8219 3.1924 26.921C3.18364 27.0202 3.20444 27.1198 3.25217 27.2072C3.68539 28.1144 3.96493 29.0872 4.07938 30.086C3.28423 30.6961 2.4034 31.1856 1.46536 31.5386C1.35159 31.5612 1.25134 31.6278 1.1864 31.7239C1.12146 31.82 1.09709 31.9379 1.11859 32.0519C1.13433 32.138 1.17594 32.2174 1.23788 32.2793C1.29983 32.3413 1.37918 32.3829 1.46536 32.3986C2.40317 32.7499 3.28401 33.2377 4.07938 33.8462C3.97256 34.8477 3.69267 35.8231 3.25217 36.7289C3.20525 36.8158 3.1849 36.9146 3.19364 37.013C3.20239 37.1114 3.23984 37.2051 3.30135 37.2824C3.39443 37.3534 3.50838 37.3915 3.62542 37.3909C3.70626 37.3905 3.78599 37.372 3.85871 37.3366C4.79005 36.9848 5.74811 36.7082 6.72366 36.5094C7.33203 37.3089 7.81859 38.194 8.16749 39.1361C8.2 39.2284 8.25691 39.3102 8.33218 39.3728C8.40744 39.4354 8.49825 39.4765 8.59496 39.4917M7.50673 35.9155L7.12844 35.4212L6.52569 35.5473C6.38194 35.5788 5.48159 35.768 4.60017 36.0328C4.82585 35.3515 4.97844 34.6481 5.05538 33.9345L5.10456 33.3898L4.66826 33.0619C4.12227 32.6448 3.53987 32.2776 2.9281 31.9649C3.53983 31.6535 4.12224 31.2876 4.66826 30.8716L5.11339 30.5299L5.05538 29.9763C4.97108 29.287 4.82506 28.6067 4.61908 27.9436C5.26145 28.1509 5.92042 28.3028 6.58874 28.3975L7.15996 28.4744L7.50673 28.0154C7.9199 27.4658 8.28404 26.881 8.59496 26.2677C8.90556 26.8832 9.26971 27.4701 9.68319 28.0218L10.0615 28.5161L10.6642 28.39C10.808 28.3584 11.7298 28.1655 12.6162 27.8957C12.3983 28.5655 12.2401 29.2533 12.1434 29.9511L12.0576 30.5677L12.5746 30.9094C12.7007 30.9901 13.4838 31.5071 14.3022 31.9485C13.6757 32.2651 13.0797 32.6387 12.5217 33.0644L12.0274 33.4427L12.1535 34.0543C12.185 34.1981 12.3779 35.1249 12.644 36.0151C11.9795 35.7951 11.2961 35.6368 10.6025 35.5423L9.98457 35.4477L9.64284 35.9697C9.56214 36.0958 9.04892 36.8827 8.61262 37.7061C8.29717 37.0769 7.92534 36.4776 7.50169 35.9155" fill="#604C8C"/>
    <path d="M10.9869 26.5149C14.2025 25.6246 18.1657 23.5062 18.3675 20.0473C18.284 18.757 17.8621 17.5113 17.1443 16.4358C16.7169 15.6212 16.0788 13.958 16.0788 13.958C15.2858 14.3799 14.4528 14.7221 13.5921 14.9794C12.3326 15.2424 11.166 15.8365 10.2127 16.7006C7.94293 19.3185 9.3048 23.6134 10.9907 26.5098M13.6174 16.0033L13.8923 15.9138C14.4143 15.7423 14.9893 15.5494 15.5656 15.3022C15.7863 15.8331 16.0599 16.4623 16.2894 16.8948L16.4155 17.147C16.9741 17.9983 17.3125 18.9749 17.4003 19.9893C17.3177 20.6922 17.0799 21.3679 16.7041 21.9676C16.3284 22.5673 15.8241 23.076 15.2276 23.457C14.0841 24.2857 12.8144 24.9244 11.4674 25.3485C10.0551 22.6411 9.26318 19.2958 10.9504 17.3475C11.7113 16.681 12.6289 16.2185 13.6174 16.0033Z" fill="#604C8C"/>
    <path d="M20.5818 22.1849C20.5099 22.1849 20.4381 22.1849 20.37 22.1937C16.9287 22.432 14.8696 26.4394 14.0197 29.6864C15.8999 30.8242 18.0317 31.4808 20.2262 31.5981C21.5252 31.6469 22.795 31.2053 23.7835 30.3611C24.6343 29.388 25.2129 28.2074 25.4606 26.9388C25.7304 26.0561 26.4454 24.4244 26.4454 24.4244C25.586 24.1619 24.7557 23.812 23.9676 23.3803C22.9458 22.7258 21.7867 22.3163 20.5806 22.1836M24.5249 26.65L24.4442 26.9148C24.2422 27.9144 23.7921 28.8471 23.1353 29.6272C22.3224 30.3077 21.2841 30.6591 20.225 30.612C18.4555 30.5282 16.7282 30.0436 15.1735 29.1947C16.0826 26.2755 17.8682 23.3525 20.4318 23.1672H20.5806C21.5337 23.2826 22.4493 23.6082 23.2614 24.1205L23.5224 24.2604C24.0079 24.5126 24.5564 24.7825 25.1378 25.017C24.9158 25.5441 24.6649 26.1872 24.5199 26.6513L24.5249 26.65Z" fill="#604C8C"/>
    <path d="M12.7991 14.3264C13.2719 14.2722 13.6036 13.5698 13.0689 13.3176C11.5621 12.5938 10.0728 11.8246 8.58865 11.0479C7.10952 11.8259 5.62029 12.5951 4.10837 13.3176C3.5775 13.5698 3.90536 14.276 4.38327 14.3264C5.20231 14.3893 5.99927 14.6221 6.72333 15.0101C7.44739 15.3981 8.08267 15.9327 8.58865 16.5798C9.09578 15.9327 9.732 15.3982 10.4569 15.0103C11.1817 14.6223 11.9794 14.3894 12.7991 14.3264ZM5.788 13.5938C6.78166 13.0995 7.73496 12.6039 8.59496 12.155C9.42216 12.5863 10.3893 13.0856 11.4057 13.5938C10.3607 13.878 9.39756 14.4051 8.59496 15.1322C7.79444 14.4042 6.83235 13.8769 5.788 13.5938Z" fill="#604C8C"/>
    <path d="M13.0689 50.713C13.6036 50.4608 13.2757 49.7597 12.7991 49.7042C11.9791 49.64 11.1814 49.406 10.4566 49.0173C9.73182 48.6285 9.09571 48.0934 8.58863 47.4458C8.08285 48.0936 7.44773 48.6289 6.7237 49.0177C5.99966 49.4066 5.20259 49.6404 4.38325 49.7042C3.9066 49.7534 3.57874 50.4507 4.10835 50.713C5.62153 51.4419 7.10823 52.2111 8.58863 52.9828C10.0728 52.1997 11.562 51.4356 13.0689 50.713ZM8.58989 48.8947C9.39135 49.6234 10.3548 50.1507 11.4006 50.4331C10.407 50.9375 9.45367 51.4229 8.58989 51.8719C7.76269 51.4419 6.79677 50.9425 5.78798 50.4394C6.83188 50.1555 7.79264 49.6259 8.58989 48.8947Z" fill="#604C8C"/>
    <path d="M18.157 47.5331C17.9048 47.866 18.0801 48.4637 18.4987 48.4637C18.5647 48.4628 18.63 48.4504 18.6917 48.4271C20.2565 47.8382 21.8441 47.2922 23.4229 46.7538C23.8907 45.1385 24.3724 43.5295 24.8982 41.9318C25.0243 41.5358 24.7053 41.3013 24.3762 41.3013C24.2354 41.2999 24.0985 41.3476 23.989 41.4362C22.9113 42.3967 21.5235 42.9366 20.08 42.957C19.8726 42.9586 19.6654 42.9468 19.4596 42.9217C19.5711 43.739 19.5132 44.5705 19.2895 45.3645C19.0659 46.1585 18.6812 46.8979 18.1595 47.5369M20.4986 43.9254C21.5779 43.8524 22.6237 43.5207 23.5477 42.9582C23.2098 44.0238 22.9046 45.054 22.6297 45.9846C21.747 46.286 20.7181 46.6365 19.6525 47.0237C20.1749 46.0708 20.464 45.0078 20.4961 43.9216L20.4986 43.9254Z" fill="#604C8C"/>
    <path d="M19.4747 21.2441C19.7765 21.1954 20.0819 21.1714 20.3876 21.1722C21.7308 21.1927 23.0292 21.6578 24.0798 22.495C24.1834 22.5719 24.3101 22.6115 24.4392 22.6072C24.7809 22.6072 25.1188 22.355 24.9612 21.9465C24.3547 20.3816 23.7923 18.794 23.2387 17.2064C21.6284 16.7562 20.0181 16.2935 18.4255 15.7853C18.3701 15.7673 18.3122 15.7584 18.254 15.7588C17.8177 15.7588 17.6563 16.3893 17.935 16.7083C18.49 17.3184 18.913 18.0365 19.1778 18.8176C19.4425 19.5987 19.5431 20.4261 19.4734 21.2479M22.4821 18.0185C22.7885 18.9012 23.1517 19.9301 23.5527 20.9957C22.601 20.4823 21.5394 20.2063 20.4582 20.1912C20.3699 19.1073 20.0241 18.0603 19.4494 17.1371C20.515 17.4561 21.5452 17.7537 22.4758 18.0197" fill="#604C8C"/>
    <path d="M10.1233 47.345C11.0813 48.2051 12.2499 48.7963 13.5103 49.0587C14.3829 49.3374 15.9969 50.075 15.9969 50.075C16.2679 49.2154 16.6249 48.3852 17.0625 47.5972C17.7759 46.5183 18.1945 45.2715 18.2768 43.9807C18.07 40.5269 14.1029 38.4122 10.8824 37.5308C9.20528 40.431 7.85602 44.731 10.1258 47.345M17.3021 44.0387C17.2211 45.0506 16.8886 46.0263 16.3349 46.8772L16.1949 47.1382C15.9427 47.6237 15.664 48.1722 15.4308 48.7535C14.9049 48.5291 14.2656 48.2718 13.8066 48.123L13.5368 48.0373C12.5432 47.824 11.6197 47.3629 10.8521 46.6969C10.4201 46.1354 10.1182 45.485 9.96815 44.7926C9.81812 44.1002 9.82372 43.3832 9.98457 42.6932C10.2264 41.2975 10.6896 39.9494 11.3565 38.6997C14.248 39.6353 17.1407 41.4612 17.2983 44.0425L17.3021 44.0387Z" fill="#604C8C"/>
    <path d="M21.3322 2.68727L22.897 1.1123L24.4619 2.68601L22.897 4.25216L21.3322 2.68727Z" fill="#604C8C"/>
    <path d="M27.5437 0.0644531H0.0177002V64.5436H27.5437V0.0644531ZM1.04792 16.7687C1.25094 16.3463 1.46153 15.8961 1.64563 15.4106C2.17651 15.6225 2.81961 15.8646 3.28491 16.0046L3.55476 16.0815C4.55208 16.2719 5.48509 16.7113 6.26714 17.3589C6.71179 17.9108 7.02868 18.5544 7.19503 19.2433C7.36139 19.9323 7.37308 20.6495 7.22927 21.3436C7.02207 22.7444 6.59255 24.1032 5.95694 25.3686C4.11052 24.8872 2.41964 23.9373 1.04792 22.6109V16.7687ZM1.04792 26.9386C1.42152 27.6682 1.73446 28.4274 1.98357 29.2083C1.67337 29.3697 1.35308 29.5047 1.04792 29.6396V26.9386ZM1.04792 41.2596C1.37373 40.9165 1.7323 40.6061 2.1185 40.3327C3.29008 39.5479 4.58131 38.9585 5.9418 38.5875C7.25575 41.3453 7.92533 44.7084 6.1713 46.5986C5.38668 47.2359 4.45363 47.6645 3.45893 47.8444L3.1752 47.9251C2.64937 48.0739 2.06428 48.2492 1.47918 48.4736C1.35308 48.118 1.19546 47.741 1.04792 47.3854V41.2596ZM1.04792 34.4502C1.37578 34.599 1.7049 34.7466 2.03275 34.9269C1.7669 35.6981 1.4375 36.4459 1.04792 37.1626V34.4502ZM1.04792 49.7384C1.81773 49.3738 2.61982 49.0817 3.44379 48.8658C4.71265 48.6462 5.90103 48.0955 6.8888 47.2694C9.24054 44.7374 8.04008 40.392 6.46133 37.4337C4.50158 37.8619 2.657 38.707 1.05297 39.9116V39.1071C2.05989 37.6926 2.81339 36.1139 3.27987 34.4414C2.56708 34.0056 1.82271 33.6237 1.05297 33.299V30.7266C1.77215 30.4308 2.47063 30.0871 3.14368 29.6976C2.71744 28.0347 2.01037 26.4568 1.05297 25.0319V23.9702C2.64941 25.202 4.4936 26.0735 6.45881 26.525C8.06909 23.5831 9.31494 19.2478 6.98464 16.6893C6.00848 15.8487 4.82504 15.2849 3.55728 15.0563C2.67459 14.8041 1.07062 14.1118 1.04792 14.103V1.09846H26.5198V7.09949L23.3018 10.3188C23.1821 10.2681 23.0535 10.2419 22.9235 10.2419C22.7935 10.2419 22.6649 10.2681 22.5452 10.3188L15.2315 2.95589C15.3505 2.77187 15.416 2.55837 15.4206 2.33927C15.4191 2.09812 15.3462 1.86283 15.2112 1.66307C15.0761 1.4633 14.8848 1.30803 14.6616 1.21684C14.4384 1.12565 14.1931 1.10263 13.9568 1.15068C13.7205 1.19873 13.5037 1.3157 13.3338 1.48684C13.1639 1.65797 13.0485 1.87559 13.0021 2.11224C12.9558 2.3489 12.9806 2.59398 13.0734 2.81656C13.1662 3.03913 13.3228 3.22924 13.5236 3.36288C13.7243 3.49652 13.9601 3.56771 14.2013 3.56747L14.3412 3.54099L21.781 11.0161C21.7135 11.1667 21.6771 11.3294 21.6741 11.4944C21.6712 11.6595 21.7017 11.8234 21.7638 11.9763C21.826 12.1292 21.9184 12.2679 22.0356 12.3841C22.1529 12.5003 22.2924 12.5916 22.4459 12.6523C22.5993 12.7131 22.7635 12.7422 22.9285 12.7378C23.0935 12.7334 23.2558 12.6956 23.4058 12.6267C23.5558 12.5578 23.6903 12.4592 23.8011 12.337C23.912 12.2147 23.9969 12.0712 24.0508 11.9152C24.106 11.7715 24.1351 11.619 24.1365 11.465C24.1332 11.3231 24.1042 11.183 24.0508 11.0514L26.516 8.57358V39.1398C26.1099 38.3829 25.7723 37.5913 25.5072 36.7742C25.2237 35.5149 24.615 34.3519 23.7419 33.4011C22.7873 32.6292 21.5869 32.2264 20.3599 32.2662C18.0934 32.398 15.901 33.121 14.0008 34.3632C14.9364 37.5838 17.1129 41.5281 20.5579 41.6669H20.684C21.9208 41.5227 23.1035 41.0781 24.129 40.3718C24.849 39.9721 26.2386 39.3908 26.5173 39.2785V55.9979L24.0584 53.5302C24.1076 53.3959 24.1348 53.2545 24.1391 53.1116C24.1403 52.9311 24.1016 52.7526 24.0256 52.5889C23.9496 52.4252 23.8382 52.2804 23.6995 52.1649C23.5609 52.0494 23.3983 51.9662 23.2235 51.921C23.0488 51.8759 22.8662 51.8701 22.689 51.9041C22.5117 51.938 22.3442 52.0108 22.1985 52.1173C22.0527 52.2237 21.9324 52.3612 21.8462 52.5197C21.76 52.6782 21.71 52.8539 21.6998 53.0341C21.6896 53.2143 21.7195 53.3945 21.7873 53.5617L14.2757 61.1175C14.253 61.1175 14.2303 61.1037 14.2076 61.1037C14.0468 61.104 13.8876 61.1361 13.7393 61.198C13.5909 61.26 13.4562 61.3506 13.3429 61.4647C13.2297 61.5788 13.14 61.7141 13.0791 61.8629C13.0183 62.0117 12.9874 62.1711 12.9882 62.3319C12.9893 62.6149 13.09 62.8885 13.2726 63.1048C13.4552 63.321 13.708 63.4661 13.9869 63.5147H9.07661C9.35686 63.4673 9.61152 63.3229 9.79595 63.1066C9.98039 62.8903 10.0829 62.6161 10.0854 62.3319C10.087 62.0906 10.0174 61.8542 9.88532 61.6523C9.7532 61.4504 9.56444 61.292 9.34268 61.197V57.4393C9.63583 57.2975 9.8612 57.0458 9.96981 56.7389C10.0784 56.4319 10.0615 56.0945 9.92273 55.8C9.8542 55.6548 9.75766 55.5245 9.63866 55.4167C9.51965 55.3089 9.38053 55.2257 9.22927 55.1718C9.07801 55.1179 8.91759 55.0944 8.75723 55.1026C8.59687 55.1109 8.43972 55.1508 8.2948 55.2199C8.00189 55.3619 7.77673 55.6136 7.66815 55.9204C7.55957 56.2273 7.57631 56.5646 7.71475 56.8592C7.83837 57.112 8.043 57.3162 8.29606 57.4393V61.2487C8.01156 61.3919 7.79557 61.6423 7.69556 61.9447C7.59554 62.2471 7.61968 62.5769 7.76267 62.8615C7.84604 63.0312 7.96871 63.1785 8.12048 63.2912C8.27225 63.404 8.44874 63.4788 8.63527 63.5096H1.04792V49.7384ZM25.2273 38.759C24.7015 38.9923 24.0798 39.276 23.6574 39.5156L23.414 39.6505C22.5968 40.2038 21.6622 40.5595 20.684 40.6896H20.5982C19.8958 40.6175 19.2184 40.3894 18.6154 40.0221C18.0124 39.6547 17.499 39.1572 17.1129 38.5661C16.2676 37.4301 15.6114 36.165 15.1697 34.8197C16.748 33.8859 18.5286 33.3474 20.3599 33.2498C21.3584 33.2127 22.337 33.5353 23.1177 34.159C23.7914 34.9121 24.2645 35.8228 24.4934 36.807L24.588 37.0907C24.7683 37.6128 24.9751 38.1878 25.2273 38.759ZM22.9424 63.5096L24.4631 61.9788L22.902 60.4051L21.3372 61.9788L22.8579 63.5033H14.4282C14.7073 63.4552 14.9604 63.3103 15.1431 63.0939C15.3258 62.8775 15.4263 62.6037 15.4269 62.3205C15.4239 62.0793 15.3454 61.8452 15.2025 61.6509L22.5452 54.2616C22.6648 54.3123 22.7935 54.3385 22.9235 54.3385C23.0535 54.3385 23.1821 54.3123 23.3018 54.2616L26.5085 57.4821V63.5134L22.9424 63.5096Z" fill="#604C8C"/>
    <path d="M8.29357 3.44161V7.15269C8.09609 7.25367 7.93006 7.40687 7.81357 7.59562C7.69707 7.78438 7.63455 8.00146 7.63282 8.22326C7.63401 8.44373 7.69477 8.65978 7.80868 8.84856C7.92258 9.03733 8.08539 9.1918 8.27988 9.29564C8.47437 9.39948 8.69331 9.44882 8.91354 9.43844C9.13377 9.42806 9.3471 9.35835 9.53096 9.23668C9.71482 9.11501 9.86238 8.94591 9.95802 8.74726C10.0537 8.54861 10.0938 8.32781 10.0743 8.1082C10.0547 7.88859 9.97621 7.67835 9.84698 7.49972C9.71776 7.32109 9.54265 7.18071 9.34019 7.09342V3.43657C9.6329 3.29443 9.85766 3.04247 9.96558 2.73548C10.0735 2.4285 10.0558 2.09132 9.91646 1.79729C9.83082 1.62213 9.70448 1.47004 9.54799 1.35374C9.39151 1.23744 9.20944 1.16031 9.01703 1.12882C8.82463 1.09733 8.62747 1.11239 8.44208 1.17273C8.25668 1.23308 8.08844 1.33695 7.95143 1.47567C7.81442 1.61438 7.71264 1.7839 7.65459 1.97003C7.59655 2.15616 7.58393 2.35348 7.61781 2.54549C7.65168 2.73749 7.73105 2.91859 7.84928 3.07362C7.96751 3.22865 8.12115 3.35311 8.29736 3.43657L8.29357 3.44161Z" fill="#604C8C"/>
    <path d="M54.0294 56.7848V0.0644531H26.5084V64.5436H54.0294V56.7848ZM53.0042 63.5084H52.6978L51.3889 57.554L51.3624 57.4191L51.4885 57.3838L53.0017 57.0282L53.0042 63.5084ZM51.2729 56.4305L50.2023 56.6827L50.4406 57.7621L51.7016 63.5058H45.4169L46.63 57.7747L46.8595 56.6953L45.7889 56.4431L44.1609 56.0648L42.533 56.4519L41.4624 56.7041L41.6957 57.7835L42.9567 63.5046H36.6871L37.9014 57.7974L38.1309 56.7129L37.0603 56.4607L30.0669 54.8504L31.5688 47.7889L31.7983 46.7209L30.7277 46.4687L30.1388 46.3338L29.9988 45.7361L29.7466 44.6617L28.6723 44.9L27.5374 45.1522V40.3554L33.092 39.1235L33.2269 39.0919L33.2585 39.2268L33.8701 41.827L34.01 42.4209L34.6039 42.5558L37.1902 43.1536L37.3251 43.1851L37.2987 43.3162L35.7968 50.3777L35.5938 51.3222L36.5332 51.5378L39.5697 52.2389L39.7904 52.2881L40.011 52.2389L43.0374 51.5189L43.9781 51.2945L43.7663 50.35L42.2241 43.3024L42.1925 43.1763L42.3275 43.1409L44.1269 42.7185L45.9263 43.1321L46.0612 43.1636L46.0297 43.2986L44.5279 50.3513L44.3299 51.3008L45.2656 51.5164L48.302 52.2175L48.5227 52.2667L48.7471 52.2175L51.7735 51.4975L52.7129 51.273L52.5011 50.3286L50.9589 43.2809L50.9274 43.146L51.0623 43.1195L53.0055 42.6567V56.0232L51.2691 56.433L51.2729 56.4305ZM44.4182 63.5096H43.9592L42.6591 57.583L42.6276 57.4481L42.7625 57.4165L44.166 57.0786L45.5732 57.4065L45.7082 57.4329L45.6817 57.5679L44.4182 63.5096ZM27.5386 46.166L28.8841 45.8697L29.0102 45.8382L29.0417 45.9731L29.1817 46.567L29.3217 47.1647L29.9156 47.2997L30.5045 47.4346L30.6394 47.4661L30.6154 47.6036L29.1023 54.6537L28.8992 55.6033L29.8387 55.8189L36.8321 57.4292L36.967 57.4607L36.9405 57.5956L35.6796 63.5096H27.5386V46.166ZM32.8777 35.1287L33.952 35.3632L34.1954 34.2838L34.6632 32.2511L34.1866 30.2222L33.9344 29.1478L32.86 29.3861L27.5437 30.5651V25.206L32.8512 26.3484L33.9255 26.583L34.1777 25.5036L34.7717 22.8996L37.3529 22.288L38.4235 22.0358L38.1902 20.9564L36.643 13.9126L39.6794 13.1926L42.7058 13.8937L41.2077 20.9426L40.9782 22.027L42.0526 22.2704L44.0702 22.7382L46.0877 22.2616L47.1583 22.0094L46.9238 20.93L45.369 13.8811L48.3953 13.161L51.4318 13.8621L49.9299 20.9237L49.7005 22.0031L50.771 22.2553L53.0093 22.7622V41.6416L50.8366 42.1586L49.7711 42.4108L50.0043 43.4902L51.5478 50.5379L48.5214 51.2579L45.4951 50.5568L46.9969 43.4953L47.2264 42.4108L46.1558 42.1675L44.1319 41.6996L42.1144 42.1763L41.0438 42.4285L41.2821 43.5079L42.8293 50.5518L39.803 51.2718L36.7665 50.5707L38.2684 43.518L38.4979 42.4335L37.4273 42.1813L34.8372 41.5874L34.2307 38.9873L33.9785 37.9129L32.9041 38.1462L27.5613 39.334V33.9849L32.8953 35.1324L32.8777 35.1287ZM27.5386 32.9762V31.5664L33.0706 30.3432L33.2055 30.3117L33.237 30.4466L33.6595 32.2549L33.2459 34.0631L33.2194 34.198L33.0845 34.1665L27.5424 32.9762H27.5386ZM53.0105 21.7534L51.0005 21.2856L50.8656 21.2591L50.8921 21.1242L52.3939 14.0626L52.5969 13.1182L51.6613 12.9025L48.6248 12.2014L48.3953 12.1497L48.1709 12.204L45.1445 12.924L44.2051 13.1446L44.4119 14.0942L45.9591 21.138L45.9856 21.273L45.8595 21.3045L44.0601 21.7269L42.2606 21.3133L42.1257 21.2818L42.1522 21.1557L43.654 14.0942L43.857 13.1497L42.9214 12.9341L39.8849 12.233L39.6643 12.1838L39.4398 12.233L36.4135 12.953L35.474 13.1774L35.6808 14.1219L37.2281 21.1658L37.2545 21.3007L37.1284 21.3322L34.5422 21.9488L33.9533 22.0888L33.8133 22.6865L33.2143 25.2841L33.1828 25.4102L33.0567 25.3838L27.5424 24.1959V19.4042L28.5954 19.6286L29.6748 19.8619L29.927 18.7825L30.0619 18.1886L30.6508 18.0486L31.7213 17.7964L31.4881 16.7221L29.9307 9.67568L36.9115 8.02127L37.9821 7.76907L37.7438 6.68967L36.5244 1.1035H42.731L41.5482 6.67201L41.3187 7.75646L42.3893 7.99983L44.0172 8.37812L45.6451 7.991L46.7157 7.7388L46.4774 6.65436L45.258 1.10603H51.4608L50.278 6.64679L50.0485 7.7262L51.1228 7.97839L53.003 8.41469V21.7534H53.0105ZM28.9762 9.88248L30.5184 16.9301L30.5499 17.0562L30.415 17.0928L29.8261 17.2328L29.2321 17.3727L29.1023 17.9704L28.9673 18.5644L28.9358 18.6993L28.8009 18.6678L27.5399 18.3979V1.09846H35.5232L36.7943 6.89142L36.8258 7.02635L36.6909 7.05787L29.7063 8.71859L28.7668 8.93926L28.9762 9.88752V9.88248ZM43.7297 1.09846H44.2555L45.5165 6.86494L45.543 6.99104L45.4169 7.02761L44.0096 7.36051L42.6024 7.03644L42.4763 7.00491L42.5028 6.86999L43.7297 1.1035V1.09846ZM51.3359 7.01248L51.2098 6.98095L51.2363 6.84603L52.4595 1.09846H53.0042V7.39582L51.3359 7.01248Z" fill="#EA685A"/>
    <path d="M37.6416 36.9104L37.803 37.7149L38.5949 37.9268L39.0665 38.0529L39.3629 38.1336L39.6592 38.0705L42.6679 37.4539L43.2127 37.3417L43.509 36.8738L43.6704 36.6216L43.8192 36.8827L44.0941 37.3682L44.625 37.5081L47.5984 38.2912L47.8909 38.3719L48.1923 38.3088L48.6689 38.2143L49.4697 38.0478L49.6765 37.2559L49.8026 36.7793L49.8795 36.4829L49.8215 36.1816L49.2049 33.1552L49.0926 32.6105L48.6298 32.3091L48.3777 32.1477L48.6387 31.9989L49.1204 31.724L49.2603 31.1843L50.0384 28.1983L50.1153 27.9057L50.0573 27.6044L49.9589 27.1227L49.7975 26.3181L49.0056 26.1113L48.534 25.9852L48.2415 25.9083L47.9401 25.9663L44.9314 26.583L44.3917 26.6952L44.0954 27.163L43.9339 27.4152L43.7851 27.1542L43.5153 26.6725L42.9806 26.5287L40.0022 25.7482L39.7059 25.6675L39.4095 25.7305L38.9278 25.8289L38.1271 25.9903L37.9241 26.786L37.798 27.2588L37.7211 27.5552L37.7841 27.8565L38.3957 30.8829L38.5041 31.4277L38.972 31.729L39.2242 31.8904L38.972 32.0392L38.4903 32.3141L38.3503 32.85L37.5647 35.8361L37.4878 36.1324L37.5458 36.4338L37.6442 36.9155L37.6416 36.9104ZM38.5054 36.0832L39.2809 33.0959L39.3175 32.956L39.4436 32.8879L39.7046 32.7391L41.1119 31.9346L39.7487 31.0519L39.4965 30.8905L39.3793 30.8136L39.3528 30.6736L38.7362 27.6472L38.7223 27.5703L38.74 27.4934L38.866 27.0167L38.9203 26.8137L39.1233 26.7734L39.605 26.675L39.6819 26.6574L39.7588 26.6801L42.7272 27.4581L42.8621 27.4984L42.934 27.6245L43.0777 27.8856L43.8785 29.3016L44.7511 27.9297L44.9125 27.6775L44.9894 27.5602L45.1243 27.5287L48.133 26.9121L48.2099 26.8982L48.2869 26.9159L48.9615 27.0962L49.0018 27.303L49.0964 27.7847L49.1141 27.8616L49.0964 27.9385L48.3184 30.9245L48.278 31.0594L48.1519 31.1313L47.8909 31.2801L46.4837 32.0808L47.8468 32.9635L48.099 33.1249L48.2251 33.2019L48.2516 33.3406L48.8631 36.3669L48.8808 36.4439L48.8581 36.5208L48.732 36.9974L48.6778 37.2004L48.4748 37.2408L47.9931 37.3354L47.9212 37.353L47.8443 37.3303L44.8709 36.5523L44.7359 36.5119L44.6678 36.3858L44.519 36.1248L43.7234 34.7075L42.8407 36.0744L42.683 36.3266L42.6023 36.4527L42.4674 36.4792L39.4587 37.0958L39.3818 37.1097L39.3049 37.092L38.6302 36.9117L38.5899 36.7087L38.4903 36.2232L38.4764 36.1463L38.4941 36.0693L38.5054 36.0832Z" fill="#EA685A"/>
    <path d="M53.0005 64.5436H80.5215V0.0644531H53.0005V64.5436ZM65.2938 32.8387L58.5337 39.6354C58.4317 39.601 58.3258 39.5798 58.2184 39.5724C58.0685 39.5731 57.9202 39.6035 57.7821 39.6619L54.0307 35.889V29.0671L57.7948 25.2841C57.8501 25.3162 57.9089 25.342 57.97 25.3611C58.1651 25.3967 58.3658 25.3846 58.5551 25.3258L65.2938 32.101C65.1971 32.3374 65.1971 32.6023 65.2938 32.8387ZM54.0307 59.1731L57.9398 55.2426C58.0317 55.273 58.127 55.2925 58.2235 55.3006C58.3823 55.2983 58.5393 55.2662 58.6863 55.206L65.4641 62.0242C65.4255 62.1344 65.4026 62.2494 65.396 62.3659C65.396 62.6136 65.4713 62.8555 65.6118 63.0595C65.7523 63.2635 65.9514 63.42 66.1828 63.5084H58.308L59.7833 62.0191L58.2222 60.4492L56.6611 62.0191L58.1365 63.5084H54.0307V59.1731ZM79.5026 63.5084H73.0741C73.2734 63.4424 73.4521 63.3255 73.5925 63.1694C73.7329 63.0133 73.8302 62.8233 73.8748 62.6181C73.914 62.4138 73.8983 62.2028 73.8294 62.0065L79.4925 56.3119V63.4995L79.5026 63.5084ZM65.546 46.5254L72.2973 39.7388C72.4148 39.7903 72.5414 39.8176 72.6697 39.8191C72.7979 39.8206 72.9252 39.7963 73.0438 39.7476L79.4976 46.2379V47.625L73.093 54.0661C72.9726 54.0175 72.8445 53.9902 72.7147 53.9854C72.5633 53.9877 72.4137 54.018 72.2734 54.0749L65.5309 47.2921C65.5559 47.2408 65.5782 47.1882 65.5977 47.1345C65.6365 46.9306 65.6186 46.7199 65.546 46.5254ZM65.546 17.5228L72.2696 10.7576C72.4008 10.8126 72.5419 10.8401 72.6841 10.8386C72.8264 10.8371 72.9668 10.8065 73.0968 10.7488L79.4976 17.1798V18.6148L73.0665 25.0824C72.9494 25.0311 72.823 25.0046 72.6952 25.0046C72.5673 25.0046 72.4409 25.0311 72.3238 25.0824L65.5599 18.2819C65.5993 18.1731 65.6235 18.0594 65.6318 17.944C65.6264 17.799 65.5975 17.6559 65.546 17.5203M72.9291 1.11738C72.6106 1.05216 72.2792 1.11589 72.0076 1.29458C71.736 1.47328 71.5464 1.75237 71.4802 2.07068C71.4401 2.28837 71.462 2.51295 71.5433 2.71883L64.7793 9.52184C64.6546 9.47275 64.5224 9.44545 64.3884 9.44113C64.1453 9.44014 63.9074 9.51132 63.7047 9.64567C63.5021 9.78001 63.3439 9.97148 63.2501 10.1958C63.1564 10.4202 63.1314 10.6673 63.1782 10.9058C63.225 11.1444 63.3416 11.3637 63.5131 11.536C63.6847 11.7083 63.9035 11.8257 64.1419 11.8736C64.3803 11.9214 64.6275 11.8973 64.8522 11.8045C65.077 11.7117 65.2691 11.5543 65.4043 11.3522C65.5394 11.1501 65.6116 10.9125 65.6116 10.6693C65.6074 10.5309 65.5801 10.3941 65.5309 10.2646L72.291 3.46911C72.3364 3.49181 72.3806 3.50946 72.426 3.52712C72.634 3.56328 72.8478 3.54459 73.0464 3.47289L79.4875 9.95436V15.6843L73.7979 9.9594C73.8377 9.84636 73.8619 9.72842 73.8698 9.60884C73.8698 9.44822 73.8381 9.28916 73.7767 9.14076C73.7152 8.99236 73.6251 8.85752 73.5115 8.74394C73.3979 8.63036 73.2631 8.54027 73.1147 8.4788C72.9663 8.41733 72.8073 8.38569 72.6466 8.38569C72.486 8.38569 72.3269 8.41733 72.1785 8.4788C72.0301 8.54027 71.8953 8.63036 71.7817 8.74394C71.6681 8.85752 71.578 8.99236 71.5166 9.14076C71.4551 9.28916 71.4235 9.44822 71.4235 9.60884C71.4294 9.74759 71.4584 9.88439 71.5092 10.0136L64.7718 16.7876C64.6535 16.744 64.5294 16.7181 64.4036 16.7107C64.0843 16.7169 63.78 16.8472 63.5552 17.074C63.3304 17.3007 63.2027 17.6061 63.1993 17.9254C63.1958 18.2447 63.3169 18.5528 63.5367 18.7844C63.7566 19.0159 64.058 19.1528 64.3771 19.1658C64.5403 19.1675 64.7022 19.1371 64.8537 19.0763L71.537 25.7961C71.4713 25.9632 71.4433 26.1428 71.4552 26.322C71.467 26.5012 71.5183 26.6755 71.6054 26.8326C71.6925 26.9896 71.8132 27.1255 71.959 27.2304C72.1047 27.3353 72.2719 27.4067 72.4484 27.4394C72.625 27.4722 72.8066 27.4655 72.9803 27.4199C73.154 27.3742 73.3154 27.2907 73.453 27.1754C73.5907 27.06 73.7011 26.9157 73.7764 26.7527C73.8517 26.5896 73.8901 26.412 73.8887 26.2324C73.8868 26.0937 73.8594 25.9565 73.808 25.8276L79.4824 20.1204V44.731L73.808 39.0238C73.8861 38.8392 73.9176 38.6381 73.8998 38.4384C73.8821 38.2387 73.8155 38.0464 73.706 37.8784C73.5966 37.7104 73.4475 37.5719 73.272 37.475C73.0964 37.3781 72.8998 37.3258 72.6993 37.3227C72.4988 37.3196 72.3006 37.3658 72.1222 37.4571C71.9437 37.5485 71.7904 37.6824 71.6758 37.8468C71.5611 38.0113 71.4886 38.2015 71.4646 38.4005C71.4406 38.5996 71.4659 38.8015 71.5382 38.9885L64.8096 45.7524C64.7566 45.7232 64.7008 45.6991 64.6432 45.6806C64.4859 45.6471 64.3236 45.6451 64.1656 45.6748C64.0077 45.7045 63.8572 45.7653 63.7228 45.8536C63.5885 45.942 63.4731 46.0561 63.3832 46.1894C63.2934 46.3227 63.2309 46.4725 63.1993 46.6301C63.1323 46.9472 63.1934 47.278 63.3695 47.5502C63.5455 47.8223 63.822 48.0138 64.1388 48.0827C64.3467 48.1212 64.5611 48.1024 64.7592 48.0285L71.5508 54.8605C71.511 54.9736 71.4868 55.0915 71.479 55.2111C71.4739 55.3918 71.5091 55.5714 71.5818 55.7369C71.6546 55.9024 71.7632 56.0497 71.8998 56.1682C72.0364 56.2866 72.1976 56.3733 72.3717 56.4219C72.5458 56.4706 72.7286 56.4799 72.9068 56.4494C73.085 56.4189 73.2542 56.3492 73.4022 56.2453C73.5502 56.1415 73.6733 56.0061 73.7626 55.8489C73.852 55.6917 73.9053 55.5167 73.9189 55.3364C73.9324 55.1561 73.9057 54.9751 73.8408 54.8063L79.49 49.1319V54.8063L73.0943 61.2373C72.9693 61.1635 72.827 61.1238 72.6819 61.1223C72.5367 61.1207 72.3936 61.1574 72.2671 61.2285L65.5839 54.5049C65.6744 54.2619 65.685 53.9962 65.6139 53.7467C65.5429 53.4972 65.3939 53.2769 65.1889 53.1181C64.9838 52.9592 64.7333 52.87 64.474 52.8635C64.2146 52.8571 63.96 52.9336 63.7473 53.0821C63.5345 53.2305 63.3748 53.4431 63.2914 53.6887C63.208 53.9343 63.2052 54.2002 63.2836 54.4475C63.3619 54.6948 63.5173 54.9106 63.7269 55.0634C63.9366 55.2162 64.1896 55.298 64.449 55.2968C64.5702 55.289 64.6898 55.2649 64.8046 55.225L71.537 61.9939C71.5162 62.0317 71.4981 62.0709 71.4827 62.1112C71.4254 62.4012 71.4749 62.7021 71.622 62.9584C71.7692 63.2147 72.0041 63.4092 72.2835 63.5058H67.0416C67.3443 63.3919 67.5898 63.163 67.7246 62.869C67.8594 62.575 67.8727 62.2397 67.7616 61.9359C67.707 61.7856 67.6233 61.6475 67.5151 61.5297C67.407 61.4119 67.2767 61.3166 67.1316 61.2493C66.9865 61.182 66.8295 61.1441 66.6697 61.1377C66.5099 61.1314 66.3505 61.1566 66.2005 61.2121L66.1601 61.226L59.3672 54.3927C59.4038 54.2853 59.425 54.1732 59.4303 54.0598C59.4303 53.8994 59.3987 53.7406 59.3373 53.5925C59.2759 53.4443 59.186 53.3097 59.0725 53.1962C58.9591 53.0828 58.8245 52.9929 58.6763 52.9315C58.5282 52.8701 58.3694 52.8386 58.209 52.8386C58.0486 52.8386 57.8898 52.8701 57.7416 52.9315C57.5935 52.9929 57.4588 53.0828 57.3454 53.1962C57.232 53.3097 57.1421 53.4443 57.0807 53.5925C57.0193 53.7406 56.9877 53.8994 56.9877 54.0598C56.9882 54.2337 57.0251 54.4055 57.0962 54.5642L54.0194 57.6637V37.3896L57.0558 40.4475C57.0168 40.5593 56.9938 40.676 56.9877 40.7943C56.9877 40.9546 57.0193 41.1134 57.0807 41.2616C57.1421 41.4098 57.232 41.5444 57.3454 41.6578C57.4588 41.7712 57.5935 41.8612 57.7416 41.9226C57.8898 41.9839 58.0486 42.0155 58.209 42.0155C58.3694 42.0155 58.5282 41.9839 58.6763 41.9226C58.8245 41.8612 58.9591 41.7712 59.0725 41.6578C59.186 41.5444 59.2759 41.4098 59.3373 41.2616C59.3987 41.1134 59.4303 40.9546 59.4303 40.7943C59.4306 40.629 59.3985 40.4654 59.3357 40.3126L66.0012 33.6155C66.1371 33.6707 66.2821 33.6998 66.4287 33.7012C66.7475 33.691 67.0498 33.5572 67.2716 33.3281C67.4935 33.099 67.6176 32.7926 67.6176 32.4736C67.6176 32.1547 67.4935 31.8483 67.2716 31.6192C67.0498 31.3901 66.7475 31.2563 66.4287 31.2461C66.2931 31.2503 66.1592 31.2776 66.0328 31.3268L59.3268 24.5805C59.3579 24.5198 59.3836 24.4565 59.4038 24.3914C59.4396 24.2335 59.4437 24.0701 59.4158 23.9107C59.3879 23.7513 59.3286 23.599 59.2413 23.4627C59.154 23.3264 59.0405 23.2088 58.9073 23.1168C58.7741 23.0248 58.624 22.9602 58.4657 22.9268C58.3073 22.8933 58.1439 22.8917 57.9849 22.922C57.8259 22.9523 57.6745 23.014 57.5396 23.1033C57.4046 23.1927 57.2888 23.308 57.1988 23.4425C57.1088 23.577 57.0465 23.7281 57.0155 23.887C56.9791 24.0852 56.9929 24.2894 57.0558 24.4809L54.0206 27.5363V7.06292L57.0974 10.1523C57.0296 10.2993 56.9917 10.4582 56.986 10.62C56.9802 10.7817 57.0067 10.943 57.0639 11.0944C57.1212 11.2457 57.2079 11.3842 57.3192 11.5017C57.4305 11.6192 57.564 11.7134 57.7121 11.7788C57.8601 11.8441 58.0197 11.8794 58.1815 11.8824C58.3433 11.8855 58.5041 11.8563 58.6546 11.7966C58.805 11.7369 58.942 11.6478 59.0576 11.5346C59.1733 11.4214 59.2652 11.2863 59.3281 11.1372C59.3984 10.982 59.4337 10.8132 59.4315 10.6429C59.4272 10.5273 59.4042 10.4131 59.3634 10.3049L66.1727 3.45902C66.2216 3.48461 66.2727 3.50571 66.3253 3.52207C66.4828 3.55493 66.6452 3.55643 66.8033 3.52648C66.9613 3.49654 67.112 3.43574 67.2465 3.34756C67.3811 3.25937 67.4969 3.14554 67.5875 3.01256C67.678 2.87958 67.7415 2.73006 67.7742 2.57255C67.8386 2.25409 67.7754 1.92305 67.598 1.65083C67.4206 1.37861 67.1433 1.18702 66.8259 1.11738C66.508 1.05139 66.177 1.11435 65.9055 1.29241C65.6341 1.47047 65.4444 1.74905 65.3783 2.0669C65.3425 2.27825 65.3612 2.49525 65.4325 2.69739L58.6636 9.50671C58.5207 9.44812 58.3678 9.41772 58.2134 9.41718C58.1132 9.42255 58.0144 9.44384 57.9208 9.48022L54.0206 5.55604V1.09846H79.4925V8.44874L73.7979 2.73144C73.8261 2.68109 73.8497 2.62834 73.8685 2.57381C73.9353 2.25544 73.873 1.92356 73.6952 1.65116C73.5173 1.37875 73.2386 1.18811 72.9203 1.12116" fill="#B167A1"/>
    <path d="M79.4924 64.5436H107.017V0.0644531H79.4924V64.5436ZM105.988 2.6293C104.564 2.00962 103.095 1.4979 101.594 1.09846H105.988V2.6293ZM100.299 10.5218C101.533 11.4623 102.824 12.3244 104.166 13.103C104.76 13.4498 105.372 13.7739 105.988 14.0879V16.2731C103.992 17.2808 102.092 18.4703 100.314 19.8266C100.702 16.7368 100.697 13.6103 100.299 10.5218ZM104.684 12.1989C103.012 11.2257 101.421 10.1197 99.9254 8.89135L98.8599 8.00866L99.0894 9.37935C99.7198 13.2141 99.7228 17.1258 99.0982 20.9615L98.8775 22.3196L99.9431 21.447C101.819 19.9192 103.847 18.5885 105.996 17.4761V21.7181C102.711 23.6918 99.8112 26.244 97.4362 29.2512L96.6179 30.2903L97.9179 30.0923C100.703 29.6692 103.419 28.8783 105.996 27.7405V36.8663C103.422 35.729 100.708 34.9382 97.9255 34.5145L96.6216 34.3166L97.4451 35.3556C99.8229 38.3534 102.719 40.9005 105.996 42.8761V47.0992C103.848 45.9868 101.82 44.6575 99.9431 43.1321L98.8813 42.2646L99.102 43.6226C99.7268 47.4648 99.7221 51.383 99.0881 55.2237L98.8637 56.5868L99.9292 55.7142C101.81 54.1853 103.841 52.8514 105.992 51.7333V55.9614C102.721 57.9336 99.8295 60.476 97.4552 63.468L97.4325 63.4995H88.8653L88.8389 63.468C86.515 60.5474 83.6985 58.0556 80.5164 56.1051V51.8556C82.5863 52.9479 84.5432 54.242 86.3585 55.7193L87.4202 56.5919L87.1996 55.2287C86.5675 51.3854 86.5628 47.465 87.1857 43.6201L87.4102 42.262L86.3484 43.1346C84.534 44.6049 82.5803 45.8942 80.5151 46.9844V42.7248C83.7035 40.7743 86.5233 38.2772 88.8452 35.3481L89.6686 34.309L88.3647 34.507C85.6623 34.9207 83.0244 35.6811 80.5164 36.7692V27.8162C83.0262 28.9094 85.6673 29.6724 88.3735 30.086L89.6736 30.2839L88.8552 29.2449C86.5331 26.3069 83.7101 23.8023 80.5164 21.8467V17.5921C82.5812 18.6843 84.5338 19.9767 86.3459 21.4508L87.4114 22.3234L87.187 20.9602C86.5663 17.1258 86.571 13.2161 87.2008 9.38313L87.4215 8.02L86.3598 8.89135C84.8664 10.1192 83.2766 11.2249 81.6058 12.1976C81.2553 12.4044 80.8858 12.5848 80.5214 12.7739V8.49287C83.7011 6.54159 86.5145 4.04835 88.8338 1.1262L88.8603 1.09468H97.4287L97.4501 1.1262C99.8232 4.12169 102.715 6.66643 105.988 8.63915V12.8849C105.547 12.6604 105.106 12.4435 104.684 12.1964V12.1989ZM105.988 22.9173V26.6006C103.797 27.6035 101.497 28.3466 99.1335 28.8149C101.116 26.5226 103.426 24.5353 105.988 22.9173ZM105.988 37.9974V41.6315C103.434 40.0264 101.129 38.0551 99.1474 35.7806C101.506 36.2522 103.802 36.9953 105.988 37.9974ZM100.314 44.7575C102.093 46.1094 103.993 47.2959 105.988 48.3022V50.5417C103.987 51.5489 102.082 52.7385 100.299 54.0951C100.697 50.9955 100.7 47.8578 100.307 44.7575H100.314ZM105.988 57.2072V60.8326C103.806 61.8329 101.515 62.5756 99.1613 63.0456C101.141 60.7775 103.441 58.8106 105.988 57.2072ZM87.129 63.0456C84.8538 62.5882 82.6373 61.8764 80.5214 60.9234V57.3522C82.9814 58.9275 85.206 60.843 87.129 63.0418V63.0456ZM85.9941 54.0926C84.2755 52.79 82.4455 51.6414 80.5252 50.6602V48.1849C82.442 47.2064 84.2691 46.0612 85.9852 44.7626C85.5939 47.8612 85.596 50.997 85.9915 54.0951L85.9941 54.0926ZM80.5252 41.4903V37.9129C82.6448 36.9569 84.8656 36.2433 87.1453 35.7856C85.2206 37.994 82.9901 39.9158 80.5214 41.4928L80.5252 41.4903ZM80.5252 26.6927V23.061C83.0012 24.6537 85.2354 26.594 87.1592 28.8225C84.8735 28.3657 82.6468 27.6521 80.5214 26.6952L80.5252 26.6927ZM85.9852 19.8253C84.2704 18.5218 82.4432 17.3732 80.5252 16.3929V13.9719C81.0699 13.6932 81.6046 13.4095 82.1304 13.1081C83.4695 12.3276 84.7582 11.4638 85.989 10.5218C85.5934 13.6111 85.5912 16.7381 85.9827 19.8279L85.9852 19.8253ZM80.5252 7.25837V3.68096C82.639 2.72786 84.8539 2.01718 87.1277 1.5625C85.2078 3.76646 82.9833 5.68525 80.5214 7.26089L80.5252 7.25837ZM99.165 1.55746C101.518 2.02873 103.808 2.77269 105.988 3.77427V7.40464C103.442 5.79785 101.143 3.82803 99.165 1.55746ZM84.7041 1.09846C83.2774 1.48205 81.8797 1.96621 80.5214 2.54733V1.09846H84.7041ZM80.5214 62.0608C81.8807 62.6392 83.2782 63.1233 84.7041 63.5096H80.5214V62.0608ZM101.589 63.5096C103.092 63.1097 104.562 62.5954 105.987 61.9712V63.5096H101.589ZM93.6331 3.34301L93.1476 2.09716L92.6584 3.34301C89.6778 10.9641 89.6778 19.4284 92.6584 27.0495L93.1401 28.2777L93.6255 27.0495C96.1755 20.5984 96.5736 13.4963 94.7604 6.80063C94.446 5.62769 94.0671 4.47297 93.6255 3.34175M93.1401 25.3585C91.1094 19.463 90.8933 13.0939 92.5197 7.07427C92.7 6.40847 92.898 5.73384 93.1401 5.04534C93.3696 5.72501 93.5764 6.40342 93.7567 7.07427C95.3851 13.0948 95.1725 19.465 93.1464 25.3636L93.1401 25.3585ZM93.1401 36.319L92.6546 37.5422C90.1049 43.9946 89.7069 51.0979 91.5197 57.7948C91.8349 58.9676 92.2138 60.1222 92.6546 61.2537L93.1363 62.5046L93.6218 61.2537C96.6112 53.6343 96.6112 45.1667 93.6218 37.5472L93.1401 36.319ZM93.7567 57.5263C93.5764 58.1921 93.3696 58.8705 93.1401 59.5501C92.9017 58.8667 92.7038 58.1958 92.5197 57.5263C90.8942 51.5065 91.1103 45.1377 93.1401 39.242C95.1674 45.1383 95.3821 51.5067 93.7567 57.5263Z" fill="#DAA622"/>
    <path d="M105.983 64.5436H133.505V0.0644531H105.983V64.5436ZM131.292 28.9763C128.92 30.7228 126.078 31.7161 123.134 31.8274C123.222 29.2549 123.975 26.749 125.319 24.554C127.433 26.2816 129.472 27.7582 131.292 28.9763ZM122.087 31.8312C119.717 31.7555 117.399 31.1125 115.328 29.9559C113.258 28.7994 111.495 27.1632 110.187 25.1845C111.169 21.3498 112.928 17.7581 115.357 14.6326C116.744 16.3236 118.258 18.0196 119.855 19.6248C121.402 21.1771 122.972 22.5894 124.506 23.8794C123.014 26.271 122.181 29.0141 122.091 31.8312M124.497 40.8396C122.976 42.1259 121.416 43.5382 119.887 45.0816C118.28 46.7007 116.77 48.4144 115.371 50.1192C112.934 46.9847 111.169 43.3809 110.187 39.5333C111.494 37.5535 113.256 35.9159 115.325 34.7576C117.395 33.5994 119.713 32.9543 122.083 32.8765C122.168 35.6975 122.999 38.4458 124.489 40.8422M115.343 12.982C113.704 10.9354 112.326 8.98844 111.206 7.2962C111.737 6.65952 112.321 6.06895 112.951 5.53082C114.642 6.65562 116.577 8.04018 118.618 9.6782C117.443 10.6928 116.348 11.7974 115.343 12.982ZM110.616 6.39333C109.654 4.89024 108.926 3.63556 108.422 2.74909C109.305 3.2434 110.554 3.97729 112.047 4.93942C111.54 5.39181 111.062 5.87572 110.616 6.38829M114.678 13.7966C112.299 16.8043 110.522 20.2416 109.442 23.921C108.133 21.4574 107.541 18.6762 107.733 15.893C107.924 13.1098 108.892 10.4361 110.526 8.17511C111.7 9.91148 113.099 11.8307 114.678 13.7966ZM109.856 26.4884C111.996 29.3602 115.041 31.4265 118.501 32.3532C115.039 33.279 111.991 35.3475 109.852 38.2231C109.056 34.352 109.056 30.3595 109.852 26.4884M109.438 40.7943C110.522 44.4851 112.305 47.9331 114.692 50.9502C113.122 52.9199 111.732 54.8404 110.567 56.5767C108.916 54.3173 107.935 51.6392 107.734 48.8484C107.533 46.0576 108.122 43.2665 109.432 40.7943M110.646 58.3572C111.096 58.8656 111.577 59.3461 112.085 59.796C110.596 60.7582 109.35 61.4921 108.474 61.9864C108.964 61.1037 109.693 59.8503 110.646 58.3522M111.235 57.4481C112.351 55.7571 113.718 53.8139 115.346 51.7736C116.354 52.954 117.45 54.056 118.625 55.0699C116.591 56.7091 114.663 58.0874 112.984 59.2122C112.355 58.6755 111.77 58.089 111.235 57.4582M116.012 50.9502C117.384 49.2731 118.912 47.5367 120.617 45.8231C122.097 44.3338 123.599 42.9669 125.074 41.7211C126.054 43.0817 127.239 44.2817 128.588 45.2783C127.356 46.7625 125.996 48.2694 124.522 49.7624C122.821 51.471 121.099 53.0182 119.435 54.399C118.199 53.3459 117.053 52.1919 116.008 50.949M123.124 32.8866C126.066 32.996 128.909 33.9862 131.282 35.7289C129.487 36.9382 127.441 38.4324 125.305 40.1776C123.958 37.9775 123.207 35.465 123.124 32.8866ZM125.08 23.0144C123.595 21.7635 122.08 20.3877 120.582 18.8897C118.894 17.1899 117.366 15.4712 115.999 13.8029C117.043 12.5596 118.189 11.4056 119.425 10.3528C121.09 11.7286 122.803 13.2632 124.498 14.9579C125.987 16.4509 127.351 17.9717 128.591 19.4597C127.245 20.455 126.061 21.6538 125.083 23.0131M119.418 9.00105C117.462 7.4223 115.55 6.01882 113.828 4.8398C116.058 3.19128 118.71 2.20784 121.476 2.00321C124.242 1.79858 127.009 2.38113 129.458 3.68348C125.801 4.79202 122.393 6.59537 119.419 8.99475M120.29 1.09846C117.601 1.4914 115.059 2.5711 112.91 4.23327C111.167 3.0008 109.303 1.95037 107.346 1.09846H120.29ZM107.01 2.26361C107.864 3.99049 108.833 5.65829 109.91 7.25585C108.484 9.14329 107.494 11.3226 107.01 13.6377V2.26361ZM107.01 20.2314C107.396 22.0442 108.094 23.7761 109.074 25.3497C107.931 29.9514 107.931 34.7626 109.074 39.3643C108.097 40.9355 107.4 42.6643 107.013 44.4738L107.01 20.2314ZM107.01 51.0637C107.498 53.4 108.503 55.5973 109.951 57.4947C108.85 59.127 107.867 60.8362 107.01 62.6093V51.0637ZM107.788 63.5084C109.579 62.6338 111.303 61.6282 112.946 60.4997C114.924 62.0172 117.23 63.0479 119.68 63.5084H107.788ZM113.864 59.883C115.578 58.7141 117.486 57.3144 119.428 55.7407C122.388 58.1316 125.782 59.9298 129.422 61.0368C126.983 62.3268 124.23 62.9029 121.478 62.6993C118.726 62.4957 116.087 61.5205 113.864 59.8856M132.475 63.5109H125.319C127.28 63.1649 129.159 62.4522 130.856 61.4101C131.387 61.5362 131.932 61.6345 132.475 61.7379V63.5109ZM132.475 60.7178C132.319 60.6863 132.161 60.6636 132.004 60.6283C132.17 60.5022 132.315 60.3584 132.475 60.2285V60.7178ZM132.475 58.8743C131.917 59.3913 131.32 59.8651 130.69 60.2916C126.888 59.2829 123.335 57.5024 120.251 55.061C121.947 53.6538 123.647 52.1242 125.262 50.5001C126.787 48.9617 128.182 47.4056 129.449 45.876C130.403 46.4696 131.417 46.9595 132.475 47.3375V58.8743ZM132.475 46.2266C131.658 45.9109 130.871 45.5226 130.123 45.0665C130.978 44.0047 131.746 42.9846 132.475 41.9808V46.2266ZM132.475 40.1953C131.522 41.5496 130.451 42.9833 129.25 44.4675C127.95 43.5191 126.812 42.3663 125.881 41.054C128.135 39.2054 130.295 37.6494 132.151 36.4035C132.263 36.5019 132.363 36.6242 132.475 36.7314V40.1953ZM132.475 34.9471C132.381 35.0051 132.3 35.0593 132.205 35.1186C130.543 33.8364 128.643 32.8976 126.614 32.357C128.646 31.8163 130.55 30.8757 132.214 29.5904C132.304 29.6484 132.384 29.6989 132.474 29.7518L132.475 34.9471ZM132.475 27.9852C132.367 28.0886 132.272 28.2058 132.161 28.3042C129.997 26.865 127.909 25.3224 125.895 23.6764C126.826 22.3679 127.962 21.2183 129.26 20.2717C130.465 21.7509 131.529 23.1821 132.475 24.5225V27.9852ZM132.475 22.7546C131.746 21.761 130.982 20.7446 130.123 19.6828C130.87 19.225 131.657 18.8366 132.475 18.5227V22.7546ZM129.461 18.8683C128.184 17.3349 126.777 15.765 125.238 14.2266C123.633 12.6112 121.932 11.0918 120.246 9.68703C123.341 7.23539 126.909 5.44989 130.726 4.44259C131.341 4.86304 131.926 5.32656 132.475 5.82967V17.403C131.421 17.781 130.411 18.2709 129.461 18.8645M132.475 4.4779C132.326 4.3518 132.188 4.21688 132.034 4.0996C132.178 4.06808 132.326 4.0416 132.475 4.01386V4.4779ZM132.475 3.00255C131.944 3.1009 131.408 3.19169 130.891 3.32158C129.06 2.18168 127.016 1.42697 124.883 1.1035H132.475V3.00255Z" fill="#03887E"/>
    <path d="M132.479 64.5436H159.996V0.0644531H132.479V64.5436ZM133.509 38.9835L138.191 43.6882L133.516 48.3967L133.509 38.9835ZM133.509 49.8948L138.931 44.4398L142.368 47.8936L133.516 56.8088L133.509 49.8948ZM139.679 43.6882L142.616 40.7375V46.6427L139.679 43.6882ZM136.164 63.5096L143.144 56.4885C144.296 57.6713 147.83 61.3054 149.973 63.5096H136.164ZM151.443 63.5096C149.144 61.1478 143.558 55.4002 143.518 55.3637L143.149 54.9854L134.676 63.5084H133.516V58.3055L143.122 48.6439L157.911 63.5084L151.443 63.5096ZM158.976 63.091L143.863 47.8974L147.299 44.4385L158.976 56.182V63.091ZM143.669 46.5948V40.7943L146.552 43.6945L143.669 46.5948ZM158.975 21.8795L156.276 19.1633C156.326 19.0434 156.352 18.9149 156.352 18.785C156.352 18.6552 156.326 18.5266 156.276 18.4067L158.971 15.6994L158.975 21.8795ZM158.975 14.2114L155.57 17.6338C155.403 17.5697 155.223 17.5433 155.044 17.5563C154.866 17.5693 154.692 17.6214 154.536 17.709C154.379 17.7966 154.244 17.9175 154.139 18.0632C154.035 18.2088 153.964 18.3757 153.931 18.5519C153.898 18.7281 153.904 18.9094 153.949 19.0829C153.994 19.2565 154.077 19.418 154.191 19.5561C154.305 19.6942 154.448 19.8055 154.611 19.8821C154.773 19.9587 154.95 19.9987 155.129 19.9994C155.267 19.995 155.404 19.9677 155.534 19.9187L158.974 23.3725V30.3281L156.396 27.738C156.444 27.6113 156.469 27.4774 156.472 27.3421C156.479 27.0721 156.399 26.8069 156.244 26.5856C156.089 26.3643 155.868 26.1986 155.611 26.1129C155.355 26.0271 155.078 26.0259 154.822 26.1094C154.565 26.1928 154.341 26.3566 154.185 26.5765C154.028 26.7964 153.946 27.0608 153.95 27.3309C153.955 27.6009 154.047 27.8623 154.211 28.0766C154.376 28.2908 154.604 28.4466 154.864 28.5209C155.124 28.5953 155.4 28.5843 155.653 28.4896L158.972 31.8223V40.2709L155.946 43.3112C155.702 43.2168 155.434 43.2032 155.181 43.2723C154.929 43.3414 154.705 43.4896 154.543 43.6951C154.381 43.9006 154.289 44.1526 154.281 44.4142C154.272 44.6758 154.348 44.9332 154.497 45.1487C154.645 45.3641 154.859 45.5262 155.107 45.6113C155.354 45.6963 155.623 45.6998 155.872 45.6212C156.122 45.5426 156.34 45.3861 156.494 45.1746C156.648 44.9631 156.731 44.7078 156.729 44.4461C156.72 44.3236 156.695 44.2029 156.656 44.0867L158.963 41.7665V54.6802L148.029 43.6882L154.704 36.9861L153.956 36.2295L147.294 42.9379L143.856 39.4866L150.993 32.3129L150.251 31.5563L143.661 38.1765V31.0985L150.939 23.7848L150.197 23.0282L143.661 29.5992V22.6638L150.881 15.4043L150.138 14.6477L143.112 21.7093L136.148 14.7158L135.406 15.4623L142.611 22.708V29.6434L136.107 23.1077L135.365 23.8643L142.611 31.1465V38.2345L136.164 31.7505L135.417 32.5071L142.361 39.4879L138.929 42.9379L133.507 37.4816V6.53709L136.57 3.4565C136.623 3.48752 136.68 3.51167 136.74 3.52838C136.897 3.56153 137.059 3.56323 137.217 3.53337C137.375 3.50351 137.525 3.44269 137.66 3.35441C137.794 3.26614 137.909 3.15216 137.999 3.01905C138.089 2.88593 138.152 2.73633 138.184 2.57886C138.22 2.42102 138.224 2.25764 138.196 2.09821C138.168 1.93878 138.109 1.78649 138.021 1.6502C137.934 1.51391 137.82 1.39634 137.687 1.30433C137.554 1.21233 137.404 1.14772 137.246 1.11428C137.087 1.08084 136.924 1.07922 136.765 1.10952C136.606 1.13983 136.454 1.20145 136.319 1.2908C136.185 1.38016 136.069 1.49545 135.979 1.62999C135.889 1.76453 135.826 1.91562 135.795 2.07446C135.757 2.27878 135.772 2.48967 135.841 2.68604L133.502 5.03778V1.09846H158.974V14.2127L158.975 14.2114Z" fill="#CF3D28"/>
    <path d="M54.0534 106.737C54.5756 106.592 55.064 106.346 55.4908 106.012C55.9175 105.677 56.274 105.262 56.54 104.79C56.8688 104.197 57.0277 103.525 56.999 102.847C57.0212 102.044 56.7346 101.263 56.1983 100.666C55.6252 100.056 54.8801 99.6357 54.0622 99.46C53.5439 99.3514 53.0176 99.2852 52.4885 99.2621C51.8857 99.2268 51.2376 99.2129 50.568 99.2129C50.1368 99.2129 49.7219 99.2129 49.336 99.2305C48.9502 99.2482 48.6211 99.257 48.3462 99.2709C48.0713 99.2848 47.7888 99.2936 47.5505 99.3075V105.631H0.179077V107.503H47.5492V113.808H50.1847V107.16H51.2906L55.6044 113.843H58.8249L53.9071 106.781L54.0534 106.737ZM53.0446 105.716C52.8601 105.806 52.6671 105.877 52.4683 105.928C52.2982 105.967 52.1254 105.994 51.9513 106.008C51.7798 106.022 51.5327 106.026 51.2136 106.026H50.7874C50.6126 106.023 50.4382 106.007 50.2654 105.981L50.1847 105.963V100.499H50.2931C50.3564 100.496 50.4196 100.491 50.4823 100.481C50.568 100.481 50.6626 100.481 50.7748 100.473C50.887 100.464 51.0447 100.464 51.2288 100.464C51.6261 100.46 52.0228 100.499 52.4116 100.581C52.7626 100.656 53.0936 100.804 53.3825 101.017C53.6684 101.242 53.8916 101.536 54.0307 101.872C54.1923 102.295 54.2686 102.746 54.2551 103.199C54.2656 103.614 54.2033 104.028 54.071 104.422C53.9677 104.714 53.8187 104.987 53.6297 105.232C53.4715 105.434 53.2704 105.598 53.0408 105.713L53.0446 105.716Z" fill="#405378"/>
    <path d="M65.8902 99.0014C64.9202 98.9875 63.9571 99.1663 63.0567 99.5273C62.2435 99.8654 61.5187 100.386 60.9383 101.048C60.3334 101.765 59.8804 102.597 59.6067 103.494C59.2847 104.563 59.1286 105.675 59.1439 106.791C59.0119 108.749 59.6386 110.684 60.8941 112.193C61.5565 112.839 62.3472 113.338 63.215 113.659C64.0829 113.98 65.0085 114.115 65.9318 114.055C66.9019 114.071 67.8654 113.892 68.7652 113.529C69.5745 113.195 70.295 112.677 70.8698 112.016C71.472 111.303 71.9221 110.475 72.1926 109.582C72.5144 108.512 72.6696 107.399 72.6528 106.282C72.7849 104.323 72.1623 102.387 70.9127 100.871C70.2544 100.221 69.466 99.7183 68.5992 99.3951C67.7324 99.0719 66.807 98.936 65.8839 98.9964L65.8902 99.0014ZM68.827 110.889C68.5134 111.368 68.0785 111.755 67.5666 112.011C67.0547 112.267 66.4841 112.383 65.9129 112.346C65.3388 112.386 64.7644 112.274 64.2473 112.022C63.7302 111.769 63.2887 111.385 62.9672 110.908C62.2671 109.578 61.9494 108.08 62.0492 106.581C61.952 105.055 62.2757 103.532 62.9849 102.178C63.3261 101.724 63.7679 101.355 64.2756 101.101C64.7833 100.846 65.3431 100.713 65.911 100.711C66.4789 100.71 67.0395 100.84 67.5487 101.091C68.0579 101.342 68.5019 101.708 68.8459 102.16C69.5372 103.498 69.8498 104.998 69.75 106.501C69.8469 108.02 69.5278 109.537 68.827 110.889Z" fill="#405378"/>
    <path d="M80.8543 105.814L79.0196 104.749C78.5337 104.477 78.0744 104.161 77.6477 103.804C77.4825 103.656 77.3518 103.473 77.2647 103.269C77.1775 103.064 77.1361 102.843 77.1433 102.621C77.1265 102.27 77.2228 101.923 77.4182 101.631C77.5908 101.397 77.8198 101.209 78.084 101.087C78.3473 100.96 78.6298 100.878 78.92 100.843C79.177 100.812 79.4354 100.794 79.6942 100.789C80.0995 100.784 80.5043 100.817 80.9035 100.888C81.2011 100.94 81.4957 101.007 81.7862 101.091C81.9961 101.156 82.2006 101.237 82.3978 101.334L82.969 99.6202C82.7091 99.5176 82.4413 99.4362 82.1683 99.3769C81.853 99.305 81.4533 99.2419 80.9905 99.1789C80.4438 99.1118 79.8932 99.0806 79.3424 99.0856C78.0867 99.0055 76.8429 99.3702 75.8293 100.116C75.2854 100.676 74.9049 101.375 74.7289 102.136C74.5528 102.896 74.588 103.691 74.8306 104.433C74.9608 104.791 75.1509 105.124 75.393 105.418C75.6267 105.702 75.8938 105.956 76.1887 106.175C76.4804 106.393 76.7853 106.592 77.1016 106.773L79.2693 108.073C79.6988 108.322 80.0886 108.634 80.4256 108.999C80.7368 109.437 80.8632 109.979 80.7773 110.509C80.6914 111.038 80.4001 111.513 79.9666 111.829C79.3018 112.159 78.5643 112.315 77.8229 112.283C77.3825 112.287 76.9427 112.251 76.509 112.175C76.1812 112.117 75.857 112.04 75.538 111.945C75.293 111.867 75.054 111.771 74.8231 111.658L74.2291 113.366C74.5541 113.484 74.886 113.581 75.2228 113.659C75.5784 113.739 76.0185 113.816 76.5229 113.883C77.1132 113.96 77.7081 113.997 78.3034 113.992C79.6658 114.086 81.0162 113.683 82.104 112.857C82.5411 112.455 82.8836 111.962 83.1069 111.412C83.3302 110.863 83.4287 110.27 83.3952 109.678C83.4332 108.88 83.212 108.091 82.7647 107.429C82.2425 106.767 81.5908 106.218 80.8493 105.815L80.8543 105.814Z" fill="#405378"/>
    <path d="M95.0139 105.684H88.8351V99.2534H86.095V113.824H88.8338V107.435H95.0126V113.824H97.7515V99.2534H95.0139V105.684Z" fill="#405378"/>
    <path d="M63.9886 107.649H68.2293L66.1058 105.089L63.9886 107.649Z" fill="#405378"/>
    <path d="M159.821 105.628H112.689V99.2534H110.679V110.079L109.941 108.882C109.892 108.793 109.833 108.693 109.77 108.586L109.325 107.88L103.888 99.2534H101.287V113.824H103.294V102.932L110.215 113.824H112.693V107.498H159.82L159.821 105.628Z" fill="#405378"/>
  </g>
  <defs>
    <clipPath id="clip0_431_2411">
      <rect width="160" height="114.133" fill="white"/>
    </clipPath>
  </defs>
</svg>